<svg width="3840" height="2160" viewBox="0 0 3840 2160" fill="none" xmlns="http://www.w3.org/2000/svg">
  <rect width="3840" height="2160" fill="#071315"/>
  <circle cx="1920" cy="1080" r="780" fill="#0E2326"/>
  <circle cx="1920" cy="1080" r="560" fill="#102B2E"/>
  <g transform="translate(1360 640) scale(6.875)">
    <path d="M64 12L107 36.5V86L64 111L21 86V36.5L64 12Z" fill="#13B8A6"/>
    <path d="M64 24L94 41.2V75.8L64 93L34 75.8V41.2L64 24Z" fill="white" fill-opacity="0.18"/>
    <path d="M61 31L45 40.2V78.5L61 87.7V70.8L55.5 67.6V48.8L61 45.6V31Z" fill="white"/>
    <path d="M68 31V45.6L73.5 48.8V67.6L68 70.8V87.7L84 78.5V40.2L68 31Z" fill="white"/>
    <path d="M52 56.5H76V69.5H52V56.5Z" fill="white"/>
    <path d="M61 46H68V80H61V46Z" fill="#13B8A6"/>
  </g>
  <text x="1920" y="1628" text-anchor="middle" font-family="Inter, SF Pro Display, Helvetica Neue, Arial, sans-serif" font-size="250" font-weight="800" letter-spacing="0" fill="#F7FFFD">C2CMarket</text>
  <text x="1920" y="1772" text-anchor="middle" font-family="Inter, SF Pro Text, Helvetica Neue, Arial, sans-serif" font-size="76" font-weight="500" letter-spacing="0" fill="#8FDCD4">community marketplace for shared access</text>
</svg>
