<svg width="128" height="128" viewBox="0 0 128 128" fill="none" xmlns="http://www.w3.org/2000/svg">
  <path d="M64 12L107 36.5V86L64 111L21 86V36.5L64 12Z" fill="#13B8A6"/>
  <path d="M64 24L94 41.2V75.8L64 93L34 75.8V41.2L64 24Z" fill="white" fill-opacity="0.18"/>
  <path d="M61 31L45 40.2V78.5L61 87.7V70.8L55.5 67.6V48.8L61 45.6V31Z" fill="white"/>
  <path d="M68 31V45.6L73.5 48.8V67.6L68 70.8V87.7L84 78.5V40.2L68 31Z" fill="white"/>
  <path d="M52 56.5H76V69.5H52V56.5Z" fill="white"/>
  <path d="M61 46H68V80H61V46Z" fill="#13B8A6"/>
</svg>
