<svg xmlns="http://www.w3.org/2000/svg" viewBox="0 0 64 64">
  <rect width="64" height="64" rx="14" fill="#D97757"/>
  <path fill="#FCF2EE" d="m12.572 42.548 12.58-7.06.211-.613-.211-.34h-.614l-2.102-.13-7.183-.195-6.225-.259-6.032-.323-1.52-.324-1.423-1.876.146-.938 1.277-.857 1.828.162 4.044.275 6.064.421 4.4.259 6.517.679h1.035l.145-.421-.356-.259-.275-.259-6.274-4.19-6.794-4.497-3.558-2.588-1.925-1.31-.97-1.229-.421-2.685 1.746-1.925 2.346.162.598.161 2.378 1.828 5.079 3.93 6.63 4.885.97.809.388-.275.048-.194-.437-.728-3.606-6.517-3.85-6.63-1.714-2.75-.453-1.65c-.162-.679-.275-1.245-.275-1.941L17.557.356 18.657 0l2.653.356 1.116.97 1.65 3.768 2.669 5.938 4.141 8.073 1.213 2.394.647 2.216.243.679h.421v-.388l.34-4.545.63-5.581.615-7.183.21-2.022 1.003-2.427 1.99-1.31 1.552.743 1.277 1.828-.178 1.18-.76 4.934-1.488 7.733-.97 5.176h.566l.647-.647 2.62-3.477 4.4-5.5 1.94-2.183 2.264-2.41 1.456-1.147h2.75l2.022 3.008-.906 3.105-2.83 3.59-2.345 3.04-3.364 4.53-2.102 3.623.194.292.502-.049 7.604-1.617 4.109-.744 4.9-.84 2.215 1.034.243 1.052-.873 2.15-5.24 1.294-6.144 1.229-9.153 2.167-.113.08.13.163 4.125.388 1.763.097h4.32l8.04.599 2.103 1.39 1.261 1.697-.21 1.294-3.235 1.65-4.367-1.035-10.193-2.427-3.493-.873h-.485v.291l2.912 2.847 5.338 4.82 6.679 6.209.34 1.536-.857 1.213-.906-.129-5.873-4.416-2.264-1.99-5.128-4.32h-.34v.453l1.18 1.73 6.242 9.38.324 2.88-.453.938-1.617.566-1.78-.324-3.654-5.127-3.768-5.776-3.04-5.176-.372.21-1.795 19.33-.84.987-1.941.744-1.618-1.229-.856-1.989.856-3.93 1.036-5.127.84-4.077.76-5.063.453-1.682-.032-.113-.372.049-3.817 5.24-5.808 7.846-4.594 4.917-1.1.437-1.909-.987.178-1.763 1.068-1.569 6.355-8.089 3.833-5.014 2.475-2.895-.016-.421h-.146l-16.886 10.97-3.008.388-1.294-1.213.162-1.99.615-.647 5.079-3.493Z"/>
</svg>
