<svg width="128" height="128" viewBox="0 0 128 128" fill="none" xmlns="http://www.w3.org/2000/svg">
  <rect width="128" height="128" rx="28" fill="#10A37F"/>
  <path d="M65.5 24.5c9.8 0 18.4 6.2 21.5 15.1 9.2 2 16.1 10.2 16.1 20 0 6.5-3.1 12.6-8.2 16.4.8 9.4-5.2 18.5-14.5 21.4-6.2 1.9-12.9.8-18.1-2.9-8.6 4-19 .9-24-7.4-3.3-5.6-3.7-12.4-1.1-18.2-6.3-7-6.9-17.8-.9-25.5 4-5.1 10.2-7.9 16.6-7.7 4.1-7 8.5-11.2 12.6-11.2Zm12 20.2-13.1-7.6c-4.1-2.4-9.1-1.6-12.3 1.6l20.3 11.7 5.1-5.7Zm-29.8 4.1c-4.3 0-8.3 2.5-10.2 6.5-2.1 4.4-1.1 9.5 2.2 12.8V44.7c-2.6.7-4.6 2.1-6.1 4.1Zm-2.1 32.9c2.2 3.7 6.4 5.8 10.8 5.3 4.8-.5 8.5-4 9.6-8.5L45.6 66.7v15Zm34.6 6.7c4.1-1.3 7.2-5 7.8-9.4.6-4.8-1.9-9.3-5.9-11.4v23.5c-.6.3-1.3.5-1.9.7Zm10.1-22.1c3.4-2.7 4.9-7.4 3.6-11.6-1.4-4.7-5.6-7.8-10.2-8V70l6.6-3.7ZM58.1 75.6l-5.1-2.9V52.4l5.1-2.9 17.7 10.2v5.8L58.1 75.6Zm5.4-9.4 7-4-7-4-7 4 7 4Z" fill="white"/>
</svg>
